# xmcd
#
# Track frame offsets:
#	150
#	23231
#	44059
#	61364
#	84947
#	109844
#	129079
#	144550
#	173679
#	195415
#	223354
#	241975
#	276385
#
# Disc length: 4282 seconds
#
# Revision: 1
# Processed by: cddbd v1.5.2PL0 Copyright (c) Steve Scherf et al.
# Submitted via: audiograbber 1.83.01
#
DISCID=bc10b80d
DTITLE=Scarred - New Filth Order
DYEAR=2009
DGENRE=Thrash Metal
TTITLE0=Stones
TTITLE1=Perfect Circle
TTITLE2=Bittersweet
TTITLE3=Random Ballistic Mayhem
TTITLE4=Antinomy
TTITLE5=Catharsis
TTITLE6=Purify
TTITLE7=New Filth Order
TTITLE8=Outcast
TTITLE9=Trepidation
TTITLE10=Trcik 1.52
TTITLE11=Ground Zero
TTITLE12=Data Track
EXTD=
EXTT0=
EXTT1=
EXTT2=
EXTT3=
EXTT4=
EXTT5=
EXTT6=
EXTT7=
EXTT8=
EXTT9=
EXTT10=
EXTT11=
EXTT12=
PLAYORDER=
